M48
; DRILL file {KiCad 7.0.1-3b83917a11~172~ubuntu22.04.1} date Mon 25 Nov 2024 12:37:49 PM CST
; FORMAT={-:-/ absolute / inch / decimal}
; #@! TF.CreationDate,2024-11-25T12:37:49-06:00
; #@! TF.GenerationSoftware,Kicad,Pcbnew,7.0.1-3b83917a11~172~ubuntu22.04.1
; #@! TF.FileFunction,Plated,1,2,PTH
FMAT,2
INCH
; #@! TA.AperFunction,Plated,PTH,ComponentDrill
T1C0.0315
; #@! TA.AperFunction,Plated,PTH,ComponentDrill
T2C0.0354
; #@! TA.AperFunction,Plated,PTH,ComponentDrill
T3C0.0394
%
G90
G05
T1
X5.9Y-5.175
X5.9Y-5.3
X5.999Y-5.775
X6.0974Y-5.775
X6.2Y-5.175
X6.2Y-5.3
X6.25Y-5.775
X6.3484Y-5.775
X6.85Y-5.3
X6.85Y-5.7
X7.15Y-5.3
X7.15Y-5.7
T2
X6.85Y-5.5
X6.95Y-5.5
X7.1Y-5.5
X7.2Y-5.5
T3
X5.35Y-5.25
X5.35Y-5.75
X6.55Y-5.8
X6.7Y-5.8
T0
M30
