%TF.GenerationSoftware,KiCad,Pcbnew,7.0.1-3b83917a11~172~ubuntu22.04.1*%
%TF.CreationDate,2024-11-25T12:37:52-06:00*%
%TF.ProjectId,Quron_BMS,5175726f-6e5f-4424-9d53-2e6b69636164,rev?*%
%TF.SameCoordinates,Original*%
%TF.FileFunction,Drillmap*%
%TF.FilePolarity,Positive*%
%FSLAX45Y45*%
G04 Gerber Fmt 4.5, Leading zero omitted, Abs format (unit mm)*
G04 Created by KiCad (PCBNEW 7.0.1-3b83917a11~172~ubuntu22.04.1) date 2024-11-25 12:37:52*
%MOMM*%
%LPD*%
G01*
G04 APERTURE LIST*
%ADD10C,0.100000*%
%ADD11C,0.200000*%
%ADD12C,0.080000*%
%ADD13C,0.090000*%
G04 APERTURE END LIST*
D10*
X13208000Y-12954000D02*
X19304000Y-12954000D01*
X19304000Y-14986000D01*
X13208000Y-14986000D01*
X13208000Y-12954000D01*
D11*
D12*
X14946000Y-13104500D02*
X15026000Y-13184500D01*
X15026000Y-13104500D02*
X14946000Y-13184500D01*
X14946000Y-13422000D02*
X15026000Y-13502000D01*
X15026000Y-13422000D02*
X14946000Y-13502000D01*
X15197511Y-14628500D02*
X15277511Y-14708500D01*
X15277511Y-14628500D02*
X15197511Y-14708500D01*
X15447511Y-14628500D02*
X15527511Y-14708500D01*
X15527511Y-14628500D02*
X15447511Y-14708500D01*
X15708000Y-13104500D02*
X15788000Y-13184500D01*
X15788000Y-13104500D02*
X15708000Y-13184500D01*
X15708000Y-13422000D02*
X15788000Y-13502000D01*
X15788000Y-13422000D02*
X15708000Y-13502000D01*
X15835000Y-14628500D02*
X15915000Y-14708500D01*
X15915000Y-14628500D02*
X15835000Y-14708500D01*
X16085000Y-14628500D02*
X16165000Y-14708500D01*
X16165000Y-14628500D02*
X16085000Y-14708500D01*
X17359000Y-13422000D02*
X17439000Y-13502000D01*
X17439000Y-13422000D02*
X17359000Y-13502000D01*
X17359000Y-14438000D02*
X17439000Y-14518000D01*
X17439000Y-14438000D02*
X17359000Y-14518000D01*
X18121000Y-13422000D02*
X18201000Y-13502000D01*
X18201000Y-13422000D02*
X18121000Y-13502000D01*
X18121000Y-14438000D02*
X18201000Y-14518000D01*
X18201000Y-14438000D02*
X18121000Y-14518000D01*
D13*
X17444000Y-13970000D02*
G75*
G03*
X17444000Y-13970000I-45000J0D01*
G01*
X17698000Y-13970000D02*
G75*
G03*
X17698000Y-13970000I-45000J0D01*
G01*
X18079000Y-13970000D02*
G75*
G03*
X18079000Y-13970000I-45000J0D01*
G01*
X18333000Y-13970000D02*
G75*
G03*
X18333000Y-13970000I-45000J0D01*
G01*
D10*
X13589000Y-13285000D02*
X13589000Y-13385000D01*
X13539000Y-13335000D02*
X13639000Y-13335000D01*
X13589000Y-14555000D02*
X13589000Y-14655000D01*
X13539000Y-14605000D02*
X13639000Y-14605000D01*
X16637000Y-14682000D02*
X16637000Y-14782000D01*
X16587000Y-14732000D02*
X16687000Y-14732000D01*
X17018000Y-14682000D02*
X17018000Y-14782000D01*
X16968000Y-14732000D02*
X17068000Y-14732000D01*
D11*
X13450619Y-15303524D02*
X13450619Y-15103524D01*
X13450619Y-15103524D02*
X13498238Y-15103524D01*
X13498238Y-15103524D02*
X13526809Y-15113048D01*
X13526809Y-15113048D02*
X13545857Y-15132095D01*
X13545857Y-15132095D02*
X13555381Y-15151143D01*
X13555381Y-15151143D02*
X13564905Y-15189238D01*
X13564905Y-15189238D02*
X13564905Y-15217809D01*
X13564905Y-15217809D02*
X13555381Y-15255905D01*
X13555381Y-15255905D02*
X13545857Y-15274952D01*
X13545857Y-15274952D02*
X13526809Y-15294000D01*
X13526809Y-15294000D02*
X13498238Y-15303524D01*
X13498238Y-15303524D02*
X13450619Y-15303524D01*
X13650619Y-15303524D02*
X13650619Y-15170190D01*
X13650619Y-15208286D02*
X13660143Y-15189238D01*
X13660143Y-15189238D02*
X13669667Y-15179714D01*
X13669667Y-15179714D02*
X13688714Y-15170190D01*
X13688714Y-15170190D02*
X13707762Y-15170190D01*
X13774428Y-15303524D02*
X13774428Y-15170190D01*
X13774428Y-15103524D02*
X13764905Y-15113048D01*
X13764905Y-15113048D02*
X13774428Y-15122571D01*
X13774428Y-15122571D02*
X13783952Y-15113048D01*
X13783952Y-15113048D02*
X13774428Y-15103524D01*
X13774428Y-15103524D02*
X13774428Y-15122571D01*
X13898238Y-15303524D02*
X13879190Y-15294000D01*
X13879190Y-15294000D02*
X13869667Y-15274952D01*
X13869667Y-15274952D02*
X13869667Y-15103524D01*
X14003000Y-15303524D02*
X13983952Y-15294000D01*
X13983952Y-15294000D02*
X13974428Y-15274952D01*
X13974428Y-15274952D02*
X13974428Y-15103524D01*
X14231571Y-15303524D02*
X14231571Y-15103524D01*
X14231571Y-15103524D02*
X14298238Y-15246381D01*
X14298238Y-15246381D02*
X14364905Y-15103524D01*
X14364905Y-15103524D02*
X14364905Y-15303524D01*
X14545857Y-15303524D02*
X14545857Y-15198762D01*
X14545857Y-15198762D02*
X14536333Y-15179714D01*
X14536333Y-15179714D02*
X14517286Y-15170190D01*
X14517286Y-15170190D02*
X14479190Y-15170190D01*
X14479190Y-15170190D02*
X14460143Y-15179714D01*
X14545857Y-15294000D02*
X14526809Y-15303524D01*
X14526809Y-15303524D02*
X14479190Y-15303524D01*
X14479190Y-15303524D02*
X14460143Y-15294000D01*
X14460143Y-15294000D02*
X14450619Y-15274952D01*
X14450619Y-15274952D02*
X14450619Y-15255905D01*
X14450619Y-15255905D02*
X14460143Y-15236857D01*
X14460143Y-15236857D02*
X14479190Y-15227333D01*
X14479190Y-15227333D02*
X14526809Y-15227333D01*
X14526809Y-15227333D02*
X14545857Y-15217809D01*
X14641095Y-15170190D02*
X14641095Y-15370190D01*
X14641095Y-15179714D02*
X14660143Y-15170190D01*
X14660143Y-15170190D02*
X14698238Y-15170190D01*
X14698238Y-15170190D02*
X14717286Y-15179714D01*
X14717286Y-15179714D02*
X14726809Y-15189238D01*
X14726809Y-15189238D02*
X14736333Y-15208286D01*
X14736333Y-15208286D02*
X14736333Y-15265428D01*
X14736333Y-15265428D02*
X14726809Y-15284476D01*
X14726809Y-15284476D02*
X14717286Y-15294000D01*
X14717286Y-15294000D02*
X14698238Y-15303524D01*
X14698238Y-15303524D02*
X14660143Y-15303524D01*
X14660143Y-15303524D02*
X14641095Y-15294000D01*
X14822048Y-15284476D02*
X14831571Y-15294000D01*
X14831571Y-15294000D02*
X14822048Y-15303524D01*
X14822048Y-15303524D02*
X14812524Y-15294000D01*
X14812524Y-15294000D02*
X14822048Y-15284476D01*
X14822048Y-15284476D02*
X14822048Y-15303524D01*
X14822048Y-15179714D02*
X14831571Y-15189238D01*
X14831571Y-15189238D02*
X14822048Y-15198762D01*
X14822048Y-15198762D02*
X14812524Y-15189238D01*
X14812524Y-15189238D02*
X14822048Y-15179714D01*
X14822048Y-15179714D02*
X14822048Y-15198762D01*
D12*
X13123000Y-15591000D02*
X13203000Y-15671000D01*
X13203000Y-15591000D02*
X13123000Y-15671000D01*
D11*
X13488714Y-15523524D02*
X13507762Y-15523524D01*
X13507762Y-15523524D02*
X13526809Y-15533048D01*
X13526809Y-15533048D02*
X13536333Y-15542571D01*
X13536333Y-15542571D02*
X13545857Y-15561619D01*
X13545857Y-15561619D02*
X13555381Y-15599714D01*
X13555381Y-15599714D02*
X13555381Y-15647333D01*
X13555381Y-15647333D02*
X13545857Y-15685428D01*
X13545857Y-15685428D02*
X13536333Y-15704476D01*
X13536333Y-15704476D02*
X13526809Y-15714000D01*
X13526809Y-15714000D02*
X13507762Y-15723524D01*
X13507762Y-15723524D02*
X13488714Y-15723524D01*
X13488714Y-15723524D02*
X13469667Y-15714000D01*
X13469667Y-15714000D02*
X13460143Y-15704476D01*
X13460143Y-15704476D02*
X13450619Y-15685428D01*
X13450619Y-15685428D02*
X13441095Y-15647333D01*
X13441095Y-15647333D02*
X13441095Y-15599714D01*
X13441095Y-15599714D02*
X13450619Y-15561619D01*
X13450619Y-15561619D02*
X13460143Y-15542571D01*
X13460143Y-15542571D02*
X13469667Y-15533048D01*
X13469667Y-15533048D02*
X13488714Y-15523524D01*
X13641095Y-15704476D02*
X13650619Y-15714000D01*
X13650619Y-15714000D02*
X13641095Y-15723524D01*
X13641095Y-15723524D02*
X13631571Y-15714000D01*
X13631571Y-15714000D02*
X13641095Y-15704476D01*
X13641095Y-15704476D02*
X13641095Y-15723524D01*
X13764905Y-15609238D02*
X13745857Y-15599714D01*
X13745857Y-15599714D02*
X13736333Y-15590190D01*
X13736333Y-15590190D02*
X13726809Y-15571143D01*
X13726809Y-15571143D02*
X13726809Y-15561619D01*
X13726809Y-15561619D02*
X13736333Y-15542571D01*
X13736333Y-15542571D02*
X13745857Y-15533048D01*
X13745857Y-15533048D02*
X13764905Y-15523524D01*
X13764905Y-15523524D02*
X13803000Y-15523524D01*
X13803000Y-15523524D02*
X13822048Y-15533048D01*
X13822048Y-15533048D02*
X13831571Y-15542571D01*
X13831571Y-15542571D02*
X13841095Y-15561619D01*
X13841095Y-15561619D02*
X13841095Y-15571143D01*
X13841095Y-15571143D02*
X13831571Y-15590190D01*
X13831571Y-15590190D02*
X13822048Y-15599714D01*
X13822048Y-15599714D02*
X13803000Y-15609238D01*
X13803000Y-15609238D02*
X13764905Y-15609238D01*
X13764905Y-15609238D02*
X13745857Y-15618762D01*
X13745857Y-15618762D02*
X13736333Y-15628286D01*
X13736333Y-15628286D02*
X13726809Y-15647333D01*
X13726809Y-15647333D02*
X13726809Y-15685428D01*
X13726809Y-15685428D02*
X13736333Y-15704476D01*
X13736333Y-15704476D02*
X13745857Y-15714000D01*
X13745857Y-15714000D02*
X13764905Y-15723524D01*
X13764905Y-15723524D02*
X13803000Y-15723524D01*
X13803000Y-15723524D02*
X13822048Y-15714000D01*
X13822048Y-15714000D02*
X13831571Y-15704476D01*
X13831571Y-15704476D02*
X13841095Y-15685428D01*
X13841095Y-15685428D02*
X13841095Y-15647333D01*
X13841095Y-15647333D02*
X13831571Y-15628286D01*
X13831571Y-15628286D02*
X13822048Y-15618762D01*
X13822048Y-15618762D02*
X13803000Y-15609238D01*
X13964905Y-15523524D02*
X13983952Y-15523524D01*
X13983952Y-15523524D02*
X14003000Y-15533048D01*
X14003000Y-15533048D02*
X14012524Y-15542571D01*
X14012524Y-15542571D02*
X14022048Y-15561619D01*
X14022048Y-15561619D02*
X14031571Y-15599714D01*
X14031571Y-15599714D02*
X14031571Y-15647333D01*
X14031571Y-15647333D02*
X14022048Y-15685428D01*
X14022048Y-15685428D02*
X14012524Y-15704476D01*
X14012524Y-15704476D02*
X14003000Y-15714000D01*
X14003000Y-15714000D02*
X13983952Y-15723524D01*
X13983952Y-15723524D02*
X13964905Y-15723524D01*
X13964905Y-15723524D02*
X13945857Y-15714000D01*
X13945857Y-15714000D02*
X13936333Y-15704476D01*
X13936333Y-15704476D02*
X13926809Y-15685428D01*
X13926809Y-15685428D02*
X13917286Y-15647333D01*
X13917286Y-15647333D02*
X13917286Y-15599714D01*
X13917286Y-15599714D02*
X13926809Y-15561619D01*
X13926809Y-15561619D02*
X13936333Y-15542571D01*
X13936333Y-15542571D02*
X13945857Y-15533048D01*
X13945857Y-15533048D02*
X13964905Y-15523524D01*
X14155381Y-15523524D02*
X14174429Y-15523524D01*
X14174429Y-15523524D02*
X14193476Y-15533048D01*
X14193476Y-15533048D02*
X14203000Y-15542571D01*
X14203000Y-15542571D02*
X14212524Y-15561619D01*
X14212524Y-15561619D02*
X14222048Y-15599714D01*
X14222048Y-15599714D02*
X14222048Y-15647333D01*
X14222048Y-15647333D02*
X14212524Y-15685428D01*
X14212524Y-15685428D02*
X14203000Y-15704476D01*
X14203000Y-15704476D02*
X14193476Y-15714000D01*
X14193476Y-15714000D02*
X14174429Y-15723524D01*
X14174429Y-15723524D02*
X14155381Y-15723524D01*
X14155381Y-15723524D02*
X14136333Y-15714000D01*
X14136333Y-15714000D02*
X14126809Y-15704476D01*
X14126809Y-15704476D02*
X14117286Y-15685428D01*
X14117286Y-15685428D02*
X14107762Y-15647333D01*
X14107762Y-15647333D02*
X14107762Y-15599714D01*
X14107762Y-15599714D02*
X14117286Y-15561619D01*
X14117286Y-15561619D02*
X14126809Y-15542571D01*
X14126809Y-15542571D02*
X14136333Y-15533048D01*
X14136333Y-15533048D02*
X14155381Y-15523524D01*
X14307762Y-15723524D02*
X14307762Y-15590190D01*
X14307762Y-15609238D02*
X14317286Y-15599714D01*
X14317286Y-15599714D02*
X14336333Y-15590190D01*
X14336333Y-15590190D02*
X14364905Y-15590190D01*
X14364905Y-15590190D02*
X14383952Y-15599714D01*
X14383952Y-15599714D02*
X14393476Y-15618762D01*
X14393476Y-15618762D02*
X14393476Y-15723524D01*
X14393476Y-15618762D02*
X14403000Y-15599714D01*
X14403000Y-15599714D02*
X14422048Y-15590190D01*
X14422048Y-15590190D02*
X14450619Y-15590190D01*
X14450619Y-15590190D02*
X14469667Y-15599714D01*
X14469667Y-15599714D02*
X14479190Y-15618762D01*
X14479190Y-15618762D02*
X14479190Y-15723524D01*
X14574429Y-15723524D02*
X14574429Y-15590190D01*
X14574429Y-15609238D02*
X14583952Y-15599714D01*
X14583952Y-15599714D02*
X14603000Y-15590190D01*
X14603000Y-15590190D02*
X14631571Y-15590190D01*
X14631571Y-15590190D02*
X14650619Y-15599714D01*
X14650619Y-15599714D02*
X14660143Y-15618762D01*
X14660143Y-15618762D02*
X14660143Y-15723524D01*
X14660143Y-15618762D02*
X14669667Y-15599714D01*
X14669667Y-15599714D02*
X14688714Y-15590190D01*
X14688714Y-15590190D02*
X14717286Y-15590190D01*
X14717286Y-15590190D02*
X14736333Y-15599714D01*
X14736333Y-15599714D02*
X14745857Y-15618762D01*
X14745857Y-15618762D02*
X14745857Y-15723524D01*
X15136333Y-15514000D02*
X14964905Y-15771143D01*
X15393476Y-15523524D02*
X15412524Y-15523524D01*
X15412524Y-15523524D02*
X15431572Y-15533048D01*
X15431572Y-15533048D02*
X15441095Y-15542571D01*
X15441095Y-15542571D02*
X15450619Y-15561619D01*
X15450619Y-15561619D02*
X15460143Y-15599714D01*
X15460143Y-15599714D02*
X15460143Y-15647333D01*
X15460143Y-15647333D02*
X15450619Y-15685428D01*
X15450619Y-15685428D02*
X15441095Y-15704476D01*
X15441095Y-15704476D02*
X15431572Y-15714000D01*
X15431572Y-15714000D02*
X15412524Y-15723524D01*
X15412524Y-15723524D02*
X15393476Y-15723524D01*
X15393476Y-15723524D02*
X15374429Y-15714000D01*
X15374429Y-15714000D02*
X15364905Y-15704476D01*
X15364905Y-15704476D02*
X15355381Y-15685428D01*
X15355381Y-15685428D02*
X15345857Y-15647333D01*
X15345857Y-15647333D02*
X15345857Y-15599714D01*
X15345857Y-15599714D02*
X15355381Y-15561619D01*
X15355381Y-15561619D02*
X15364905Y-15542571D01*
X15364905Y-15542571D02*
X15374429Y-15533048D01*
X15374429Y-15533048D02*
X15393476Y-15523524D01*
X15545857Y-15704476D02*
X15555381Y-15714000D01*
X15555381Y-15714000D02*
X15545857Y-15723524D01*
X15545857Y-15723524D02*
X15536333Y-15714000D01*
X15536333Y-15714000D02*
X15545857Y-15704476D01*
X15545857Y-15704476D02*
X15545857Y-15723524D01*
X15679191Y-15523524D02*
X15698238Y-15523524D01*
X15698238Y-15523524D02*
X15717286Y-15533048D01*
X15717286Y-15533048D02*
X15726810Y-15542571D01*
X15726810Y-15542571D02*
X15736333Y-15561619D01*
X15736333Y-15561619D02*
X15745857Y-15599714D01*
X15745857Y-15599714D02*
X15745857Y-15647333D01*
X15745857Y-15647333D02*
X15736333Y-15685428D01*
X15736333Y-15685428D02*
X15726810Y-15704476D01*
X15726810Y-15704476D02*
X15717286Y-15714000D01*
X15717286Y-15714000D02*
X15698238Y-15723524D01*
X15698238Y-15723524D02*
X15679191Y-15723524D01*
X15679191Y-15723524D02*
X15660143Y-15714000D01*
X15660143Y-15714000D02*
X15650619Y-15704476D01*
X15650619Y-15704476D02*
X15641095Y-15685428D01*
X15641095Y-15685428D02*
X15631572Y-15647333D01*
X15631572Y-15647333D02*
X15631572Y-15599714D01*
X15631572Y-15599714D02*
X15641095Y-15561619D01*
X15641095Y-15561619D02*
X15650619Y-15542571D01*
X15650619Y-15542571D02*
X15660143Y-15533048D01*
X15660143Y-15533048D02*
X15679191Y-15523524D01*
X15812524Y-15523524D02*
X15936333Y-15523524D01*
X15936333Y-15523524D02*
X15869667Y-15599714D01*
X15869667Y-15599714D02*
X15898238Y-15599714D01*
X15898238Y-15599714D02*
X15917286Y-15609238D01*
X15917286Y-15609238D02*
X15926810Y-15618762D01*
X15926810Y-15618762D02*
X15936333Y-15637809D01*
X15936333Y-15637809D02*
X15936333Y-15685428D01*
X15936333Y-15685428D02*
X15926810Y-15704476D01*
X15926810Y-15704476D02*
X15917286Y-15714000D01*
X15917286Y-15714000D02*
X15898238Y-15723524D01*
X15898238Y-15723524D02*
X15841095Y-15723524D01*
X15841095Y-15723524D02*
X15822048Y-15714000D01*
X15822048Y-15714000D02*
X15812524Y-15704476D01*
X16126810Y-15723524D02*
X16012524Y-15723524D01*
X16069667Y-15723524D02*
X16069667Y-15523524D01*
X16069667Y-15523524D02*
X16050619Y-15552095D01*
X16050619Y-15552095D02*
X16031572Y-15571143D01*
X16031572Y-15571143D02*
X16012524Y-15580667D01*
X16307762Y-15523524D02*
X16212524Y-15523524D01*
X16212524Y-15523524D02*
X16203000Y-15618762D01*
X16203000Y-15618762D02*
X16212524Y-15609238D01*
X16212524Y-15609238D02*
X16231572Y-15599714D01*
X16231572Y-15599714D02*
X16279191Y-15599714D01*
X16279191Y-15599714D02*
X16298238Y-15609238D01*
X16298238Y-15609238D02*
X16307762Y-15618762D01*
X16307762Y-15618762D02*
X16317286Y-15637809D01*
X16317286Y-15637809D02*
X16317286Y-15685428D01*
X16317286Y-15685428D02*
X16307762Y-15704476D01*
X16307762Y-15704476D02*
X16298238Y-15714000D01*
X16298238Y-15714000D02*
X16279191Y-15723524D01*
X16279191Y-15723524D02*
X16231572Y-15723524D01*
X16231572Y-15723524D02*
X16212524Y-15714000D01*
X16212524Y-15714000D02*
X16203000Y-15704476D01*
X16393476Y-15523524D02*
X16393476Y-15561619D01*
X16469667Y-15523524D02*
X16469667Y-15561619D01*
X16764905Y-15799714D02*
X16755381Y-15790190D01*
X16755381Y-15790190D02*
X16736334Y-15761619D01*
X16736334Y-15761619D02*
X16726810Y-15742571D01*
X16726810Y-15742571D02*
X16717286Y-15714000D01*
X16717286Y-15714000D02*
X16707762Y-15666381D01*
X16707762Y-15666381D02*
X16707762Y-15628286D01*
X16707762Y-15628286D02*
X16717286Y-15580667D01*
X16717286Y-15580667D02*
X16726810Y-15552095D01*
X16726810Y-15552095D02*
X16736334Y-15533048D01*
X16736334Y-15533048D02*
X16755381Y-15504476D01*
X16755381Y-15504476D02*
X16764905Y-15494952D01*
X16945857Y-15723524D02*
X16831572Y-15723524D01*
X16888715Y-15723524D02*
X16888715Y-15523524D01*
X16888715Y-15523524D02*
X16869667Y-15552095D01*
X16869667Y-15552095D02*
X16850619Y-15571143D01*
X16850619Y-15571143D02*
X16831572Y-15580667D01*
X17022048Y-15542571D02*
X17031572Y-15533048D01*
X17031572Y-15533048D02*
X17050619Y-15523524D01*
X17050619Y-15523524D02*
X17098238Y-15523524D01*
X17098238Y-15523524D02*
X17117286Y-15533048D01*
X17117286Y-15533048D02*
X17126810Y-15542571D01*
X17126810Y-15542571D02*
X17136334Y-15561619D01*
X17136334Y-15561619D02*
X17136334Y-15580667D01*
X17136334Y-15580667D02*
X17126810Y-15609238D01*
X17126810Y-15609238D02*
X17012524Y-15723524D01*
X17012524Y-15723524D02*
X17136334Y-15723524D01*
X17374429Y-15723524D02*
X17374429Y-15523524D01*
X17460143Y-15723524D02*
X17460143Y-15618762D01*
X17460143Y-15618762D02*
X17450619Y-15599714D01*
X17450619Y-15599714D02*
X17431572Y-15590190D01*
X17431572Y-15590190D02*
X17403000Y-15590190D01*
X17403000Y-15590190D02*
X17383953Y-15599714D01*
X17383953Y-15599714D02*
X17374429Y-15609238D01*
X17583953Y-15723524D02*
X17564905Y-15714000D01*
X17564905Y-15714000D02*
X17555381Y-15704476D01*
X17555381Y-15704476D02*
X17545858Y-15685428D01*
X17545858Y-15685428D02*
X17545858Y-15628286D01*
X17545858Y-15628286D02*
X17555381Y-15609238D01*
X17555381Y-15609238D02*
X17564905Y-15599714D01*
X17564905Y-15599714D02*
X17583953Y-15590190D01*
X17583953Y-15590190D02*
X17612524Y-15590190D01*
X17612524Y-15590190D02*
X17631572Y-15599714D01*
X17631572Y-15599714D02*
X17641096Y-15609238D01*
X17641096Y-15609238D02*
X17650619Y-15628286D01*
X17650619Y-15628286D02*
X17650619Y-15685428D01*
X17650619Y-15685428D02*
X17641096Y-15704476D01*
X17641096Y-15704476D02*
X17631572Y-15714000D01*
X17631572Y-15714000D02*
X17612524Y-15723524D01*
X17612524Y-15723524D02*
X17583953Y-15723524D01*
X17764905Y-15723524D02*
X17745858Y-15714000D01*
X17745858Y-15714000D02*
X17736334Y-15694952D01*
X17736334Y-15694952D02*
X17736334Y-15523524D01*
X17917286Y-15714000D02*
X17898239Y-15723524D01*
X17898239Y-15723524D02*
X17860143Y-15723524D01*
X17860143Y-15723524D02*
X17841096Y-15714000D01*
X17841096Y-15714000D02*
X17831572Y-15694952D01*
X17831572Y-15694952D02*
X17831572Y-15618762D01*
X17831572Y-15618762D02*
X17841096Y-15599714D01*
X17841096Y-15599714D02*
X17860143Y-15590190D01*
X17860143Y-15590190D02*
X17898239Y-15590190D01*
X17898239Y-15590190D02*
X17917286Y-15599714D01*
X17917286Y-15599714D02*
X17926810Y-15618762D01*
X17926810Y-15618762D02*
X17926810Y-15637809D01*
X17926810Y-15637809D02*
X17831572Y-15656857D01*
X18003000Y-15714000D02*
X18022048Y-15723524D01*
X18022048Y-15723524D02*
X18060143Y-15723524D01*
X18060143Y-15723524D02*
X18079191Y-15714000D01*
X18079191Y-15714000D02*
X18088715Y-15694952D01*
X18088715Y-15694952D02*
X18088715Y-15685428D01*
X18088715Y-15685428D02*
X18079191Y-15666381D01*
X18079191Y-15666381D02*
X18060143Y-15656857D01*
X18060143Y-15656857D02*
X18031572Y-15656857D01*
X18031572Y-15656857D02*
X18012524Y-15647333D01*
X18012524Y-15647333D02*
X18003000Y-15628286D01*
X18003000Y-15628286D02*
X18003000Y-15618762D01*
X18003000Y-15618762D02*
X18012524Y-15599714D01*
X18012524Y-15599714D02*
X18031572Y-15590190D01*
X18031572Y-15590190D02*
X18060143Y-15590190D01*
X18060143Y-15590190D02*
X18079191Y-15599714D01*
X18155381Y-15799714D02*
X18164905Y-15790190D01*
X18164905Y-15790190D02*
X18183953Y-15761619D01*
X18183953Y-15761619D02*
X18193477Y-15742571D01*
X18193477Y-15742571D02*
X18203000Y-15714000D01*
X18203000Y-15714000D02*
X18212524Y-15666381D01*
X18212524Y-15666381D02*
X18212524Y-15628286D01*
X18212524Y-15628286D02*
X18203000Y-15580667D01*
X18203000Y-15580667D02*
X18193477Y-15552095D01*
X18193477Y-15552095D02*
X18183953Y-15533048D01*
X18183953Y-15533048D02*
X18164905Y-15504476D01*
X18164905Y-15504476D02*
X18155381Y-15494952D01*
D13*
X13203000Y-15895000D02*
G75*
G03*
X13203000Y-15895000I-45000J0D01*
G01*
D11*
X13488714Y-15787524D02*
X13507762Y-15787524D01*
X13507762Y-15787524D02*
X13526809Y-15797048D01*
X13526809Y-15797048D02*
X13536333Y-15806571D01*
X13536333Y-15806571D02*
X13545857Y-15825619D01*
X13545857Y-15825619D02*
X13555381Y-15863714D01*
X13555381Y-15863714D02*
X13555381Y-15911333D01*
X13555381Y-15911333D02*
X13545857Y-15949428D01*
X13545857Y-15949428D02*
X13536333Y-15968476D01*
X13536333Y-15968476D02*
X13526809Y-15978000D01*
X13526809Y-15978000D02*
X13507762Y-15987524D01*
X13507762Y-15987524D02*
X13488714Y-15987524D01*
X13488714Y-15987524D02*
X13469667Y-15978000D01*
X13469667Y-15978000D02*
X13460143Y-15968476D01*
X13460143Y-15968476D02*
X13450619Y-15949428D01*
X13450619Y-15949428D02*
X13441095Y-15911333D01*
X13441095Y-15911333D02*
X13441095Y-15863714D01*
X13441095Y-15863714D02*
X13450619Y-15825619D01*
X13450619Y-15825619D02*
X13460143Y-15806571D01*
X13460143Y-15806571D02*
X13469667Y-15797048D01*
X13469667Y-15797048D02*
X13488714Y-15787524D01*
X13641095Y-15968476D02*
X13650619Y-15978000D01*
X13650619Y-15978000D02*
X13641095Y-15987524D01*
X13641095Y-15987524D02*
X13631571Y-15978000D01*
X13631571Y-15978000D02*
X13641095Y-15968476D01*
X13641095Y-15968476D02*
X13641095Y-15987524D01*
X13745857Y-15987524D02*
X13783952Y-15987524D01*
X13783952Y-15987524D02*
X13803000Y-15978000D01*
X13803000Y-15978000D02*
X13812524Y-15968476D01*
X13812524Y-15968476D02*
X13831571Y-15939905D01*
X13831571Y-15939905D02*
X13841095Y-15901809D01*
X13841095Y-15901809D02*
X13841095Y-15825619D01*
X13841095Y-15825619D02*
X13831571Y-15806571D01*
X13831571Y-15806571D02*
X13822048Y-15797048D01*
X13822048Y-15797048D02*
X13803000Y-15787524D01*
X13803000Y-15787524D02*
X13764905Y-15787524D01*
X13764905Y-15787524D02*
X13745857Y-15797048D01*
X13745857Y-15797048D02*
X13736333Y-15806571D01*
X13736333Y-15806571D02*
X13726809Y-15825619D01*
X13726809Y-15825619D02*
X13726809Y-15873238D01*
X13726809Y-15873238D02*
X13736333Y-15892286D01*
X13736333Y-15892286D02*
X13745857Y-15901809D01*
X13745857Y-15901809D02*
X13764905Y-15911333D01*
X13764905Y-15911333D02*
X13803000Y-15911333D01*
X13803000Y-15911333D02*
X13822048Y-15901809D01*
X13822048Y-15901809D02*
X13831571Y-15892286D01*
X13831571Y-15892286D02*
X13841095Y-15873238D01*
X13964905Y-15787524D02*
X13983952Y-15787524D01*
X13983952Y-15787524D02*
X14003000Y-15797048D01*
X14003000Y-15797048D02*
X14012524Y-15806571D01*
X14012524Y-15806571D02*
X14022048Y-15825619D01*
X14022048Y-15825619D02*
X14031571Y-15863714D01*
X14031571Y-15863714D02*
X14031571Y-15911333D01*
X14031571Y-15911333D02*
X14022048Y-15949428D01*
X14022048Y-15949428D02*
X14012524Y-15968476D01*
X14012524Y-15968476D02*
X14003000Y-15978000D01*
X14003000Y-15978000D02*
X13983952Y-15987524D01*
X13983952Y-15987524D02*
X13964905Y-15987524D01*
X13964905Y-15987524D02*
X13945857Y-15978000D01*
X13945857Y-15978000D02*
X13936333Y-15968476D01*
X13936333Y-15968476D02*
X13926809Y-15949428D01*
X13926809Y-15949428D02*
X13917286Y-15911333D01*
X13917286Y-15911333D02*
X13917286Y-15863714D01*
X13917286Y-15863714D02*
X13926809Y-15825619D01*
X13926809Y-15825619D02*
X13936333Y-15806571D01*
X13936333Y-15806571D02*
X13945857Y-15797048D01*
X13945857Y-15797048D02*
X13964905Y-15787524D01*
X14155381Y-15787524D02*
X14174429Y-15787524D01*
X14174429Y-15787524D02*
X14193476Y-15797048D01*
X14193476Y-15797048D02*
X14203000Y-15806571D01*
X14203000Y-15806571D02*
X14212524Y-15825619D01*
X14212524Y-15825619D02*
X14222048Y-15863714D01*
X14222048Y-15863714D02*
X14222048Y-15911333D01*
X14222048Y-15911333D02*
X14212524Y-15949428D01*
X14212524Y-15949428D02*
X14203000Y-15968476D01*
X14203000Y-15968476D02*
X14193476Y-15978000D01*
X14193476Y-15978000D02*
X14174429Y-15987524D01*
X14174429Y-15987524D02*
X14155381Y-15987524D01*
X14155381Y-15987524D02*
X14136333Y-15978000D01*
X14136333Y-15978000D02*
X14126809Y-15968476D01*
X14126809Y-15968476D02*
X14117286Y-15949428D01*
X14117286Y-15949428D02*
X14107762Y-15911333D01*
X14107762Y-15911333D02*
X14107762Y-15863714D01*
X14107762Y-15863714D02*
X14117286Y-15825619D01*
X14117286Y-15825619D02*
X14126809Y-15806571D01*
X14126809Y-15806571D02*
X14136333Y-15797048D01*
X14136333Y-15797048D02*
X14155381Y-15787524D01*
X14307762Y-15987524D02*
X14307762Y-15854190D01*
X14307762Y-15873238D02*
X14317286Y-15863714D01*
X14317286Y-15863714D02*
X14336333Y-15854190D01*
X14336333Y-15854190D02*
X14364905Y-15854190D01*
X14364905Y-15854190D02*
X14383952Y-15863714D01*
X14383952Y-15863714D02*
X14393476Y-15882762D01*
X14393476Y-15882762D02*
X14393476Y-15987524D01*
X14393476Y-15882762D02*
X14403000Y-15863714D01*
X14403000Y-15863714D02*
X14422048Y-15854190D01*
X14422048Y-15854190D02*
X14450619Y-15854190D01*
X14450619Y-15854190D02*
X14469667Y-15863714D01*
X14469667Y-15863714D02*
X14479190Y-15882762D01*
X14479190Y-15882762D02*
X14479190Y-15987524D01*
X14574429Y-15987524D02*
X14574429Y-15854190D01*
X14574429Y-15873238D02*
X14583952Y-15863714D01*
X14583952Y-15863714D02*
X14603000Y-15854190D01*
X14603000Y-15854190D02*
X14631571Y-15854190D01*
X14631571Y-15854190D02*
X14650619Y-15863714D01*
X14650619Y-15863714D02*
X14660143Y-15882762D01*
X14660143Y-15882762D02*
X14660143Y-15987524D01*
X14660143Y-15882762D02*
X14669667Y-15863714D01*
X14669667Y-15863714D02*
X14688714Y-15854190D01*
X14688714Y-15854190D02*
X14717286Y-15854190D01*
X14717286Y-15854190D02*
X14736333Y-15863714D01*
X14736333Y-15863714D02*
X14745857Y-15882762D01*
X14745857Y-15882762D02*
X14745857Y-15987524D01*
X15136333Y-15778000D02*
X14964905Y-16035143D01*
X15393476Y-15787524D02*
X15412524Y-15787524D01*
X15412524Y-15787524D02*
X15431572Y-15797048D01*
X15431572Y-15797048D02*
X15441095Y-15806571D01*
X15441095Y-15806571D02*
X15450619Y-15825619D01*
X15450619Y-15825619D02*
X15460143Y-15863714D01*
X15460143Y-15863714D02*
X15460143Y-15911333D01*
X15460143Y-15911333D02*
X15450619Y-15949428D01*
X15450619Y-15949428D02*
X15441095Y-15968476D01*
X15441095Y-15968476D02*
X15431572Y-15978000D01*
X15431572Y-15978000D02*
X15412524Y-15987524D01*
X15412524Y-15987524D02*
X15393476Y-15987524D01*
X15393476Y-15987524D02*
X15374429Y-15978000D01*
X15374429Y-15978000D02*
X15364905Y-15968476D01*
X15364905Y-15968476D02*
X15355381Y-15949428D01*
X15355381Y-15949428D02*
X15345857Y-15911333D01*
X15345857Y-15911333D02*
X15345857Y-15863714D01*
X15345857Y-15863714D02*
X15355381Y-15825619D01*
X15355381Y-15825619D02*
X15364905Y-15806571D01*
X15364905Y-15806571D02*
X15374429Y-15797048D01*
X15374429Y-15797048D02*
X15393476Y-15787524D01*
X15545857Y-15968476D02*
X15555381Y-15978000D01*
X15555381Y-15978000D02*
X15545857Y-15987524D01*
X15545857Y-15987524D02*
X15536333Y-15978000D01*
X15536333Y-15978000D02*
X15545857Y-15968476D01*
X15545857Y-15968476D02*
X15545857Y-15987524D01*
X15679191Y-15787524D02*
X15698238Y-15787524D01*
X15698238Y-15787524D02*
X15717286Y-15797048D01*
X15717286Y-15797048D02*
X15726810Y-15806571D01*
X15726810Y-15806571D02*
X15736333Y-15825619D01*
X15736333Y-15825619D02*
X15745857Y-15863714D01*
X15745857Y-15863714D02*
X15745857Y-15911333D01*
X15745857Y-15911333D02*
X15736333Y-15949428D01*
X15736333Y-15949428D02*
X15726810Y-15968476D01*
X15726810Y-15968476D02*
X15717286Y-15978000D01*
X15717286Y-15978000D02*
X15698238Y-15987524D01*
X15698238Y-15987524D02*
X15679191Y-15987524D01*
X15679191Y-15987524D02*
X15660143Y-15978000D01*
X15660143Y-15978000D02*
X15650619Y-15968476D01*
X15650619Y-15968476D02*
X15641095Y-15949428D01*
X15641095Y-15949428D02*
X15631572Y-15911333D01*
X15631572Y-15911333D02*
X15631572Y-15863714D01*
X15631572Y-15863714D02*
X15641095Y-15825619D01*
X15641095Y-15825619D02*
X15650619Y-15806571D01*
X15650619Y-15806571D02*
X15660143Y-15797048D01*
X15660143Y-15797048D02*
X15679191Y-15787524D01*
X15812524Y-15787524D02*
X15936333Y-15787524D01*
X15936333Y-15787524D02*
X15869667Y-15863714D01*
X15869667Y-15863714D02*
X15898238Y-15863714D01*
X15898238Y-15863714D02*
X15917286Y-15873238D01*
X15917286Y-15873238D02*
X15926810Y-15882762D01*
X15926810Y-15882762D02*
X15936333Y-15901809D01*
X15936333Y-15901809D02*
X15936333Y-15949428D01*
X15936333Y-15949428D02*
X15926810Y-15968476D01*
X15926810Y-15968476D02*
X15917286Y-15978000D01*
X15917286Y-15978000D02*
X15898238Y-15987524D01*
X15898238Y-15987524D02*
X15841095Y-15987524D01*
X15841095Y-15987524D02*
X15822048Y-15978000D01*
X15822048Y-15978000D02*
X15812524Y-15968476D01*
X16117286Y-15787524D02*
X16022048Y-15787524D01*
X16022048Y-15787524D02*
X16012524Y-15882762D01*
X16012524Y-15882762D02*
X16022048Y-15873238D01*
X16022048Y-15873238D02*
X16041095Y-15863714D01*
X16041095Y-15863714D02*
X16088714Y-15863714D01*
X16088714Y-15863714D02*
X16107762Y-15873238D01*
X16107762Y-15873238D02*
X16117286Y-15882762D01*
X16117286Y-15882762D02*
X16126810Y-15901809D01*
X16126810Y-15901809D02*
X16126810Y-15949428D01*
X16126810Y-15949428D02*
X16117286Y-15968476D01*
X16117286Y-15968476D02*
X16107762Y-15978000D01*
X16107762Y-15978000D02*
X16088714Y-15987524D01*
X16088714Y-15987524D02*
X16041095Y-15987524D01*
X16041095Y-15987524D02*
X16022048Y-15978000D01*
X16022048Y-15978000D02*
X16012524Y-15968476D01*
X16298238Y-15854190D02*
X16298238Y-15987524D01*
X16250619Y-15778000D02*
X16203000Y-15920857D01*
X16203000Y-15920857D02*
X16326810Y-15920857D01*
X16393476Y-15787524D02*
X16393476Y-15825619D01*
X16469667Y-15787524D02*
X16469667Y-15825619D01*
X16764905Y-16063714D02*
X16755381Y-16054190D01*
X16755381Y-16054190D02*
X16736334Y-16025619D01*
X16736334Y-16025619D02*
X16726810Y-16006571D01*
X16726810Y-16006571D02*
X16717286Y-15978000D01*
X16717286Y-15978000D02*
X16707762Y-15930381D01*
X16707762Y-15930381D02*
X16707762Y-15892286D01*
X16707762Y-15892286D02*
X16717286Y-15844667D01*
X16717286Y-15844667D02*
X16726810Y-15816095D01*
X16726810Y-15816095D02*
X16736334Y-15797048D01*
X16736334Y-15797048D02*
X16755381Y-15768476D01*
X16755381Y-15768476D02*
X16764905Y-15758952D01*
X16926810Y-15854190D02*
X16926810Y-15987524D01*
X16879191Y-15778000D02*
X16831572Y-15920857D01*
X16831572Y-15920857D02*
X16955381Y-15920857D01*
X17183953Y-15987524D02*
X17183953Y-15787524D01*
X17269667Y-15987524D02*
X17269667Y-15882762D01*
X17269667Y-15882762D02*
X17260143Y-15863714D01*
X17260143Y-15863714D02*
X17241096Y-15854190D01*
X17241096Y-15854190D02*
X17212524Y-15854190D01*
X17212524Y-15854190D02*
X17193477Y-15863714D01*
X17193477Y-15863714D02*
X17183953Y-15873238D01*
X17393477Y-15987524D02*
X17374429Y-15978000D01*
X17374429Y-15978000D02*
X17364905Y-15968476D01*
X17364905Y-15968476D02*
X17355381Y-15949428D01*
X17355381Y-15949428D02*
X17355381Y-15892286D01*
X17355381Y-15892286D02*
X17364905Y-15873238D01*
X17364905Y-15873238D02*
X17374429Y-15863714D01*
X17374429Y-15863714D02*
X17393477Y-15854190D01*
X17393477Y-15854190D02*
X17422048Y-15854190D01*
X17422048Y-15854190D02*
X17441096Y-15863714D01*
X17441096Y-15863714D02*
X17450619Y-15873238D01*
X17450619Y-15873238D02*
X17460143Y-15892286D01*
X17460143Y-15892286D02*
X17460143Y-15949428D01*
X17460143Y-15949428D02*
X17450619Y-15968476D01*
X17450619Y-15968476D02*
X17441096Y-15978000D01*
X17441096Y-15978000D02*
X17422048Y-15987524D01*
X17422048Y-15987524D02*
X17393477Y-15987524D01*
X17574429Y-15987524D02*
X17555381Y-15978000D01*
X17555381Y-15978000D02*
X17545858Y-15958952D01*
X17545858Y-15958952D02*
X17545858Y-15787524D01*
X17726810Y-15978000D02*
X17707762Y-15987524D01*
X17707762Y-15987524D02*
X17669667Y-15987524D01*
X17669667Y-15987524D02*
X17650619Y-15978000D01*
X17650619Y-15978000D02*
X17641096Y-15958952D01*
X17641096Y-15958952D02*
X17641096Y-15882762D01*
X17641096Y-15882762D02*
X17650619Y-15863714D01*
X17650619Y-15863714D02*
X17669667Y-15854190D01*
X17669667Y-15854190D02*
X17707762Y-15854190D01*
X17707762Y-15854190D02*
X17726810Y-15863714D01*
X17726810Y-15863714D02*
X17736334Y-15882762D01*
X17736334Y-15882762D02*
X17736334Y-15901809D01*
X17736334Y-15901809D02*
X17641096Y-15920857D01*
X17812524Y-15978000D02*
X17831572Y-15987524D01*
X17831572Y-15987524D02*
X17869667Y-15987524D01*
X17869667Y-15987524D02*
X17888715Y-15978000D01*
X17888715Y-15978000D02*
X17898239Y-15958952D01*
X17898239Y-15958952D02*
X17898239Y-15949428D01*
X17898239Y-15949428D02*
X17888715Y-15930381D01*
X17888715Y-15930381D02*
X17869667Y-15920857D01*
X17869667Y-15920857D02*
X17841096Y-15920857D01*
X17841096Y-15920857D02*
X17822048Y-15911333D01*
X17822048Y-15911333D02*
X17812524Y-15892286D01*
X17812524Y-15892286D02*
X17812524Y-15882762D01*
X17812524Y-15882762D02*
X17822048Y-15863714D01*
X17822048Y-15863714D02*
X17841096Y-15854190D01*
X17841096Y-15854190D02*
X17869667Y-15854190D01*
X17869667Y-15854190D02*
X17888715Y-15863714D01*
X17964905Y-16063714D02*
X17974429Y-16054190D01*
X17974429Y-16054190D02*
X17993477Y-16025619D01*
X17993477Y-16025619D02*
X18003000Y-16006571D01*
X18003000Y-16006571D02*
X18012524Y-15978000D01*
X18012524Y-15978000D02*
X18022048Y-15930381D01*
X18022048Y-15930381D02*
X18022048Y-15892286D01*
X18022048Y-15892286D02*
X18012524Y-15844667D01*
X18012524Y-15844667D02*
X18003000Y-15816095D01*
X18003000Y-15816095D02*
X17993477Y-15797048D01*
X17993477Y-15797048D02*
X17974429Y-15768476D01*
X17974429Y-15768476D02*
X17964905Y-15758952D01*
D10*
X13153000Y-16109000D02*
X13153000Y-16209000D01*
X13103000Y-16159000D02*
X13203000Y-16159000D01*
D11*
X13555381Y-16251524D02*
X13441095Y-16251524D01*
X13498238Y-16251524D02*
X13498238Y-16051524D01*
X13498238Y-16051524D02*
X13479190Y-16080095D01*
X13479190Y-16080095D02*
X13460143Y-16099143D01*
X13460143Y-16099143D02*
X13441095Y-16108667D01*
X13641095Y-16232476D02*
X13650619Y-16242000D01*
X13650619Y-16242000D02*
X13641095Y-16251524D01*
X13641095Y-16251524D02*
X13631571Y-16242000D01*
X13631571Y-16242000D02*
X13641095Y-16232476D01*
X13641095Y-16232476D02*
X13641095Y-16251524D01*
X13774428Y-16051524D02*
X13793476Y-16051524D01*
X13793476Y-16051524D02*
X13812524Y-16061048D01*
X13812524Y-16061048D02*
X13822048Y-16070571D01*
X13822048Y-16070571D02*
X13831571Y-16089619D01*
X13831571Y-16089619D02*
X13841095Y-16127714D01*
X13841095Y-16127714D02*
X13841095Y-16175333D01*
X13841095Y-16175333D02*
X13831571Y-16213428D01*
X13831571Y-16213428D02*
X13822048Y-16232476D01*
X13822048Y-16232476D02*
X13812524Y-16242000D01*
X13812524Y-16242000D02*
X13793476Y-16251524D01*
X13793476Y-16251524D02*
X13774428Y-16251524D01*
X13774428Y-16251524D02*
X13755381Y-16242000D01*
X13755381Y-16242000D02*
X13745857Y-16232476D01*
X13745857Y-16232476D02*
X13736333Y-16213428D01*
X13736333Y-16213428D02*
X13726809Y-16175333D01*
X13726809Y-16175333D02*
X13726809Y-16127714D01*
X13726809Y-16127714D02*
X13736333Y-16089619D01*
X13736333Y-16089619D02*
X13745857Y-16070571D01*
X13745857Y-16070571D02*
X13755381Y-16061048D01*
X13755381Y-16061048D02*
X13774428Y-16051524D01*
X13964905Y-16051524D02*
X13983952Y-16051524D01*
X13983952Y-16051524D02*
X14003000Y-16061048D01*
X14003000Y-16061048D02*
X14012524Y-16070571D01*
X14012524Y-16070571D02*
X14022048Y-16089619D01*
X14022048Y-16089619D02*
X14031571Y-16127714D01*
X14031571Y-16127714D02*
X14031571Y-16175333D01*
X14031571Y-16175333D02*
X14022048Y-16213428D01*
X14022048Y-16213428D02*
X14012524Y-16232476D01*
X14012524Y-16232476D02*
X14003000Y-16242000D01*
X14003000Y-16242000D02*
X13983952Y-16251524D01*
X13983952Y-16251524D02*
X13964905Y-16251524D01*
X13964905Y-16251524D02*
X13945857Y-16242000D01*
X13945857Y-16242000D02*
X13936333Y-16232476D01*
X13936333Y-16232476D02*
X13926809Y-16213428D01*
X13926809Y-16213428D02*
X13917286Y-16175333D01*
X13917286Y-16175333D02*
X13917286Y-16127714D01*
X13917286Y-16127714D02*
X13926809Y-16089619D01*
X13926809Y-16089619D02*
X13936333Y-16070571D01*
X13936333Y-16070571D02*
X13945857Y-16061048D01*
X13945857Y-16061048D02*
X13964905Y-16051524D01*
X14155381Y-16051524D02*
X14174429Y-16051524D01*
X14174429Y-16051524D02*
X14193476Y-16061048D01*
X14193476Y-16061048D02*
X14203000Y-16070571D01*
X14203000Y-16070571D02*
X14212524Y-16089619D01*
X14212524Y-16089619D02*
X14222048Y-16127714D01*
X14222048Y-16127714D02*
X14222048Y-16175333D01*
X14222048Y-16175333D02*
X14212524Y-16213428D01*
X14212524Y-16213428D02*
X14203000Y-16232476D01*
X14203000Y-16232476D02*
X14193476Y-16242000D01*
X14193476Y-16242000D02*
X14174429Y-16251524D01*
X14174429Y-16251524D02*
X14155381Y-16251524D01*
X14155381Y-16251524D02*
X14136333Y-16242000D01*
X14136333Y-16242000D02*
X14126809Y-16232476D01*
X14126809Y-16232476D02*
X14117286Y-16213428D01*
X14117286Y-16213428D02*
X14107762Y-16175333D01*
X14107762Y-16175333D02*
X14107762Y-16127714D01*
X14107762Y-16127714D02*
X14117286Y-16089619D01*
X14117286Y-16089619D02*
X14126809Y-16070571D01*
X14126809Y-16070571D02*
X14136333Y-16061048D01*
X14136333Y-16061048D02*
X14155381Y-16051524D01*
X14307762Y-16251524D02*
X14307762Y-16118190D01*
X14307762Y-16137238D02*
X14317286Y-16127714D01*
X14317286Y-16127714D02*
X14336333Y-16118190D01*
X14336333Y-16118190D02*
X14364905Y-16118190D01*
X14364905Y-16118190D02*
X14383952Y-16127714D01*
X14383952Y-16127714D02*
X14393476Y-16146762D01*
X14393476Y-16146762D02*
X14393476Y-16251524D01*
X14393476Y-16146762D02*
X14403000Y-16127714D01*
X14403000Y-16127714D02*
X14422048Y-16118190D01*
X14422048Y-16118190D02*
X14450619Y-16118190D01*
X14450619Y-16118190D02*
X14469667Y-16127714D01*
X14469667Y-16127714D02*
X14479190Y-16146762D01*
X14479190Y-16146762D02*
X14479190Y-16251524D01*
X14574429Y-16251524D02*
X14574429Y-16118190D01*
X14574429Y-16137238D02*
X14583952Y-16127714D01*
X14583952Y-16127714D02*
X14603000Y-16118190D01*
X14603000Y-16118190D02*
X14631571Y-16118190D01*
X14631571Y-16118190D02*
X14650619Y-16127714D01*
X14650619Y-16127714D02*
X14660143Y-16146762D01*
X14660143Y-16146762D02*
X14660143Y-16251524D01*
X14660143Y-16146762D02*
X14669667Y-16127714D01*
X14669667Y-16127714D02*
X14688714Y-16118190D01*
X14688714Y-16118190D02*
X14717286Y-16118190D01*
X14717286Y-16118190D02*
X14736333Y-16127714D01*
X14736333Y-16127714D02*
X14745857Y-16146762D01*
X14745857Y-16146762D02*
X14745857Y-16251524D01*
X15136333Y-16042000D02*
X14964905Y-16299143D01*
X15393476Y-16051524D02*
X15412524Y-16051524D01*
X15412524Y-16051524D02*
X15431572Y-16061048D01*
X15431572Y-16061048D02*
X15441095Y-16070571D01*
X15441095Y-16070571D02*
X15450619Y-16089619D01*
X15450619Y-16089619D02*
X15460143Y-16127714D01*
X15460143Y-16127714D02*
X15460143Y-16175333D01*
X15460143Y-16175333D02*
X15450619Y-16213428D01*
X15450619Y-16213428D02*
X15441095Y-16232476D01*
X15441095Y-16232476D02*
X15431572Y-16242000D01*
X15431572Y-16242000D02*
X15412524Y-16251524D01*
X15412524Y-16251524D02*
X15393476Y-16251524D01*
X15393476Y-16251524D02*
X15374429Y-16242000D01*
X15374429Y-16242000D02*
X15364905Y-16232476D01*
X15364905Y-16232476D02*
X15355381Y-16213428D01*
X15355381Y-16213428D02*
X15345857Y-16175333D01*
X15345857Y-16175333D02*
X15345857Y-16127714D01*
X15345857Y-16127714D02*
X15355381Y-16089619D01*
X15355381Y-16089619D02*
X15364905Y-16070571D01*
X15364905Y-16070571D02*
X15374429Y-16061048D01*
X15374429Y-16061048D02*
X15393476Y-16051524D01*
X15545857Y-16232476D02*
X15555381Y-16242000D01*
X15555381Y-16242000D02*
X15545857Y-16251524D01*
X15545857Y-16251524D02*
X15536333Y-16242000D01*
X15536333Y-16242000D02*
X15545857Y-16232476D01*
X15545857Y-16232476D02*
X15545857Y-16251524D01*
X15679191Y-16051524D02*
X15698238Y-16051524D01*
X15698238Y-16051524D02*
X15717286Y-16061048D01*
X15717286Y-16061048D02*
X15726810Y-16070571D01*
X15726810Y-16070571D02*
X15736333Y-16089619D01*
X15736333Y-16089619D02*
X15745857Y-16127714D01*
X15745857Y-16127714D02*
X15745857Y-16175333D01*
X15745857Y-16175333D02*
X15736333Y-16213428D01*
X15736333Y-16213428D02*
X15726810Y-16232476D01*
X15726810Y-16232476D02*
X15717286Y-16242000D01*
X15717286Y-16242000D02*
X15698238Y-16251524D01*
X15698238Y-16251524D02*
X15679191Y-16251524D01*
X15679191Y-16251524D02*
X15660143Y-16242000D01*
X15660143Y-16242000D02*
X15650619Y-16232476D01*
X15650619Y-16232476D02*
X15641095Y-16213428D01*
X15641095Y-16213428D02*
X15631572Y-16175333D01*
X15631572Y-16175333D02*
X15631572Y-16127714D01*
X15631572Y-16127714D02*
X15641095Y-16089619D01*
X15641095Y-16089619D02*
X15650619Y-16070571D01*
X15650619Y-16070571D02*
X15660143Y-16061048D01*
X15660143Y-16061048D02*
X15679191Y-16051524D01*
X15812524Y-16051524D02*
X15936333Y-16051524D01*
X15936333Y-16051524D02*
X15869667Y-16127714D01*
X15869667Y-16127714D02*
X15898238Y-16127714D01*
X15898238Y-16127714D02*
X15917286Y-16137238D01*
X15917286Y-16137238D02*
X15926810Y-16146762D01*
X15926810Y-16146762D02*
X15936333Y-16165809D01*
X15936333Y-16165809D02*
X15936333Y-16213428D01*
X15936333Y-16213428D02*
X15926810Y-16232476D01*
X15926810Y-16232476D02*
X15917286Y-16242000D01*
X15917286Y-16242000D02*
X15898238Y-16251524D01*
X15898238Y-16251524D02*
X15841095Y-16251524D01*
X15841095Y-16251524D02*
X15822048Y-16242000D01*
X15822048Y-16242000D02*
X15812524Y-16232476D01*
X16031572Y-16251524D02*
X16069667Y-16251524D01*
X16069667Y-16251524D02*
X16088714Y-16242000D01*
X16088714Y-16242000D02*
X16098238Y-16232476D01*
X16098238Y-16232476D02*
X16117286Y-16203905D01*
X16117286Y-16203905D02*
X16126810Y-16165809D01*
X16126810Y-16165809D02*
X16126810Y-16089619D01*
X16126810Y-16089619D02*
X16117286Y-16070571D01*
X16117286Y-16070571D02*
X16107762Y-16061048D01*
X16107762Y-16061048D02*
X16088714Y-16051524D01*
X16088714Y-16051524D02*
X16050619Y-16051524D01*
X16050619Y-16051524D02*
X16031572Y-16061048D01*
X16031572Y-16061048D02*
X16022048Y-16070571D01*
X16022048Y-16070571D02*
X16012524Y-16089619D01*
X16012524Y-16089619D02*
X16012524Y-16137238D01*
X16012524Y-16137238D02*
X16022048Y-16156286D01*
X16022048Y-16156286D02*
X16031572Y-16165809D01*
X16031572Y-16165809D02*
X16050619Y-16175333D01*
X16050619Y-16175333D02*
X16088714Y-16175333D01*
X16088714Y-16175333D02*
X16107762Y-16165809D01*
X16107762Y-16165809D02*
X16117286Y-16156286D01*
X16117286Y-16156286D02*
X16126810Y-16137238D01*
X16298238Y-16118190D02*
X16298238Y-16251524D01*
X16250619Y-16042000D02*
X16203000Y-16184857D01*
X16203000Y-16184857D02*
X16326810Y-16184857D01*
X16393476Y-16051524D02*
X16393476Y-16089619D01*
X16469667Y-16051524D02*
X16469667Y-16089619D01*
X16764905Y-16327714D02*
X16755381Y-16318190D01*
X16755381Y-16318190D02*
X16736334Y-16289619D01*
X16736334Y-16289619D02*
X16726810Y-16270571D01*
X16726810Y-16270571D02*
X16717286Y-16242000D01*
X16717286Y-16242000D02*
X16707762Y-16194381D01*
X16707762Y-16194381D02*
X16707762Y-16156286D01*
X16707762Y-16156286D02*
X16717286Y-16108667D01*
X16717286Y-16108667D02*
X16726810Y-16080095D01*
X16726810Y-16080095D02*
X16736334Y-16061048D01*
X16736334Y-16061048D02*
X16755381Y-16032476D01*
X16755381Y-16032476D02*
X16764905Y-16022952D01*
X16926810Y-16118190D02*
X16926810Y-16251524D01*
X16879191Y-16042000D02*
X16831572Y-16184857D01*
X16831572Y-16184857D02*
X16955381Y-16184857D01*
X17183953Y-16251524D02*
X17183953Y-16051524D01*
X17269667Y-16251524D02*
X17269667Y-16146762D01*
X17269667Y-16146762D02*
X17260143Y-16127714D01*
X17260143Y-16127714D02*
X17241096Y-16118190D01*
X17241096Y-16118190D02*
X17212524Y-16118190D01*
X17212524Y-16118190D02*
X17193477Y-16127714D01*
X17193477Y-16127714D02*
X17183953Y-16137238D01*
X17393477Y-16251524D02*
X17374429Y-16242000D01*
X17374429Y-16242000D02*
X17364905Y-16232476D01*
X17364905Y-16232476D02*
X17355381Y-16213428D01*
X17355381Y-16213428D02*
X17355381Y-16156286D01*
X17355381Y-16156286D02*
X17364905Y-16137238D01*
X17364905Y-16137238D02*
X17374429Y-16127714D01*
X17374429Y-16127714D02*
X17393477Y-16118190D01*
X17393477Y-16118190D02*
X17422048Y-16118190D01*
X17422048Y-16118190D02*
X17441096Y-16127714D01*
X17441096Y-16127714D02*
X17450619Y-16137238D01*
X17450619Y-16137238D02*
X17460143Y-16156286D01*
X17460143Y-16156286D02*
X17460143Y-16213428D01*
X17460143Y-16213428D02*
X17450619Y-16232476D01*
X17450619Y-16232476D02*
X17441096Y-16242000D01*
X17441096Y-16242000D02*
X17422048Y-16251524D01*
X17422048Y-16251524D02*
X17393477Y-16251524D01*
X17574429Y-16251524D02*
X17555381Y-16242000D01*
X17555381Y-16242000D02*
X17545858Y-16222952D01*
X17545858Y-16222952D02*
X17545858Y-16051524D01*
X17726810Y-16242000D02*
X17707762Y-16251524D01*
X17707762Y-16251524D02*
X17669667Y-16251524D01*
X17669667Y-16251524D02*
X17650619Y-16242000D01*
X17650619Y-16242000D02*
X17641096Y-16222952D01*
X17641096Y-16222952D02*
X17641096Y-16146762D01*
X17641096Y-16146762D02*
X17650619Y-16127714D01*
X17650619Y-16127714D02*
X17669667Y-16118190D01*
X17669667Y-16118190D02*
X17707762Y-16118190D01*
X17707762Y-16118190D02*
X17726810Y-16127714D01*
X17726810Y-16127714D02*
X17736334Y-16146762D01*
X17736334Y-16146762D02*
X17736334Y-16165809D01*
X17736334Y-16165809D02*
X17641096Y-16184857D01*
X17812524Y-16242000D02*
X17831572Y-16251524D01*
X17831572Y-16251524D02*
X17869667Y-16251524D01*
X17869667Y-16251524D02*
X17888715Y-16242000D01*
X17888715Y-16242000D02*
X17898239Y-16222952D01*
X17898239Y-16222952D02*
X17898239Y-16213428D01*
X17898239Y-16213428D02*
X17888715Y-16194381D01*
X17888715Y-16194381D02*
X17869667Y-16184857D01*
X17869667Y-16184857D02*
X17841096Y-16184857D01*
X17841096Y-16184857D02*
X17822048Y-16175333D01*
X17822048Y-16175333D02*
X17812524Y-16156286D01*
X17812524Y-16156286D02*
X17812524Y-16146762D01*
X17812524Y-16146762D02*
X17822048Y-16127714D01*
X17822048Y-16127714D02*
X17841096Y-16118190D01*
X17841096Y-16118190D02*
X17869667Y-16118190D01*
X17869667Y-16118190D02*
X17888715Y-16127714D01*
X17964905Y-16327714D02*
X17974429Y-16318190D01*
X17974429Y-16318190D02*
X17993477Y-16289619D01*
X17993477Y-16289619D02*
X18003000Y-16270571D01*
X18003000Y-16270571D02*
X18012524Y-16242000D01*
X18012524Y-16242000D02*
X18022048Y-16194381D01*
X18022048Y-16194381D02*
X18022048Y-16156286D01*
X18022048Y-16156286D02*
X18012524Y-16108667D01*
X18012524Y-16108667D02*
X18003000Y-16080095D01*
X18003000Y-16080095D02*
X17993477Y-16061048D01*
X17993477Y-16061048D02*
X17974429Y-16032476D01*
X17974429Y-16032476D02*
X17964905Y-16022952D01*
M02*
