%TF.GenerationSoftware,KiCad,Pcbnew,7.0.1-3b83917a11~172~ubuntu22.04.1*%
%TF.CreationDate,2024-11-25T12:37:52-06:00*%
%TF.ProjectId,Quron_BMS,5175726f-6e5f-4424-9d53-2e6b69636164,rev?*%
%TF.SameCoordinates,Original*%
%TF.FileFunction,Drillmap*%
%TF.FilePolarity,Positive*%
%FSLAX45Y45*%
G04 Gerber Fmt 4.5, Leading zero omitted, Abs format (unit mm)*
G04 Created by KiCad (PCBNEW 7.0.1-3b83917a11~172~ubuntu22.04.1) date 2024-11-25 12:37:52*
%MOMM*%
%LPD*%
G01*
G04 APERTURE LIST*
%ADD10C,0.100000*%
%ADD11C,0.200000*%
%ADD12C,0.320000*%
G04 APERTURE END LIST*
D10*
X13208000Y-12954000D02*
X19304000Y-12954000D01*
X19304000Y-14986000D01*
X13208000Y-14986000D01*
X13208000Y-12954000D01*
D11*
D12*
X13556000Y-13810000D02*
X13876000Y-14130000D01*
X13876000Y-13810000D02*
X13556000Y-14130000D01*
X18636000Y-13810000D02*
X18956000Y-14130000D01*
X18956000Y-13810000D02*
X18636000Y-14130000D01*
D11*
X13450619Y-15303524D02*
X13450619Y-15103524D01*
X13450619Y-15103524D02*
X13498238Y-15103524D01*
X13498238Y-15103524D02*
X13526809Y-15113048D01*
X13526809Y-15113048D02*
X13545857Y-15132095D01*
X13545857Y-15132095D02*
X13555381Y-15151143D01*
X13555381Y-15151143D02*
X13564905Y-15189238D01*
X13564905Y-15189238D02*
X13564905Y-15217809D01*
X13564905Y-15217809D02*
X13555381Y-15255905D01*
X13555381Y-15255905D02*
X13545857Y-15274952D01*
X13545857Y-15274952D02*
X13526809Y-15294000D01*
X13526809Y-15294000D02*
X13498238Y-15303524D01*
X13498238Y-15303524D02*
X13450619Y-15303524D01*
X13650619Y-15303524D02*
X13650619Y-15170190D01*
X13650619Y-15208286D02*
X13660143Y-15189238D01*
X13660143Y-15189238D02*
X13669667Y-15179714D01*
X13669667Y-15179714D02*
X13688714Y-15170190D01*
X13688714Y-15170190D02*
X13707762Y-15170190D01*
X13774428Y-15303524D02*
X13774428Y-15170190D01*
X13774428Y-15103524D02*
X13764905Y-15113048D01*
X13764905Y-15113048D02*
X13774428Y-15122571D01*
X13774428Y-15122571D02*
X13783952Y-15113048D01*
X13783952Y-15113048D02*
X13774428Y-15103524D01*
X13774428Y-15103524D02*
X13774428Y-15122571D01*
X13898238Y-15303524D02*
X13879190Y-15294000D01*
X13879190Y-15294000D02*
X13869667Y-15274952D01*
X13869667Y-15274952D02*
X13869667Y-15103524D01*
X14003000Y-15303524D02*
X13983952Y-15294000D01*
X13983952Y-15294000D02*
X13974428Y-15274952D01*
X13974428Y-15274952D02*
X13974428Y-15103524D01*
X14231571Y-15303524D02*
X14231571Y-15103524D01*
X14231571Y-15103524D02*
X14298238Y-15246381D01*
X14298238Y-15246381D02*
X14364905Y-15103524D01*
X14364905Y-15103524D02*
X14364905Y-15303524D01*
X14545857Y-15303524D02*
X14545857Y-15198762D01*
X14545857Y-15198762D02*
X14536333Y-15179714D01*
X14536333Y-15179714D02*
X14517286Y-15170190D01*
X14517286Y-15170190D02*
X14479190Y-15170190D01*
X14479190Y-15170190D02*
X14460143Y-15179714D01*
X14545857Y-15294000D02*
X14526809Y-15303524D01*
X14526809Y-15303524D02*
X14479190Y-15303524D01*
X14479190Y-15303524D02*
X14460143Y-15294000D01*
X14460143Y-15294000D02*
X14450619Y-15274952D01*
X14450619Y-15274952D02*
X14450619Y-15255905D01*
X14450619Y-15255905D02*
X14460143Y-15236857D01*
X14460143Y-15236857D02*
X14479190Y-15227333D01*
X14479190Y-15227333D02*
X14526809Y-15227333D01*
X14526809Y-15227333D02*
X14545857Y-15217809D01*
X14641095Y-15170190D02*
X14641095Y-15370190D01*
X14641095Y-15179714D02*
X14660143Y-15170190D01*
X14660143Y-15170190D02*
X14698238Y-15170190D01*
X14698238Y-15170190D02*
X14717286Y-15179714D01*
X14717286Y-15179714D02*
X14726809Y-15189238D01*
X14726809Y-15189238D02*
X14736333Y-15208286D01*
X14736333Y-15208286D02*
X14736333Y-15265428D01*
X14736333Y-15265428D02*
X14726809Y-15284476D01*
X14726809Y-15284476D02*
X14717286Y-15294000D01*
X14717286Y-15294000D02*
X14698238Y-15303524D01*
X14698238Y-15303524D02*
X14660143Y-15303524D01*
X14660143Y-15303524D02*
X14641095Y-15294000D01*
X14822048Y-15284476D02*
X14831571Y-15294000D01*
X14831571Y-15294000D02*
X14822048Y-15303524D01*
X14822048Y-15303524D02*
X14812524Y-15294000D01*
X14812524Y-15294000D02*
X14822048Y-15284476D01*
X14822048Y-15284476D02*
X14822048Y-15303524D01*
X14822048Y-15179714D02*
X14831571Y-15189238D01*
X14831571Y-15189238D02*
X14822048Y-15198762D01*
X14822048Y-15198762D02*
X14812524Y-15189238D01*
X14812524Y-15189238D02*
X14822048Y-15179714D01*
X14822048Y-15179714D02*
X14822048Y-15198762D01*
X13003000Y-15531000D02*
X13203000Y-15731000D01*
X13203000Y-15531000D02*
X13003000Y-15731000D01*
X13431571Y-15523524D02*
X13555381Y-15523524D01*
X13555381Y-15523524D02*
X13488714Y-15599714D01*
X13488714Y-15599714D02*
X13517286Y-15599714D01*
X13517286Y-15599714D02*
X13536333Y-15609238D01*
X13536333Y-15609238D02*
X13545857Y-15618762D01*
X13545857Y-15618762D02*
X13555381Y-15637809D01*
X13555381Y-15637809D02*
X13555381Y-15685428D01*
X13555381Y-15685428D02*
X13545857Y-15704476D01*
X13545857Y-15704476D02*
X13536333Y-15714000D01*
X13536333Y-15714000D02*
X13517286Y-15723524D01*
X13517286Y-15723524D02*
X13460143Y-15723524D01*
X13460143Y-15723524D02*
X13441095Y-15714000D01*
X13441095Y-15714000D02*
X13431571Y-15704476D01*
X13641095Y-15704476D02*
X13650619Y-15714000D01*
X13650619Y-15714000D02*
X13641095Y-15723524D01*
X13641095Y-15723524D02*
X13631571Y-15714000D01*
X13631571Y-15714000D02*
X13641095Y-15704476D01*
X13641095Y-15704476D02*
X13641095Y-15723524D01*
X13726809Y-15542571D02*
X13736333Y-15533048D01*
X13736333Y-15533048D02*
X13755381Y-15523524D01*
X13755381Y-15523524D02*
X13803000Y-15523524D01*
X13803000Y-15523524D02*
X13822048Y-15533048D01*
X13822048Y-15533048D02*
X13831571Y-15542571D01*
X13831571Y-15542571D02*
X13841095Y-15561619D01*
X13841095Y-15561619D02*
X13841095Y-15580667D01*
X13841095Y-15580667D02*
X13831571Y-15609238D01*
X13831571Y-15609238D02*
X13717286Y-15723524D01*
X13717286Y-15723524D02*
X13841095Y-15723524D01*
X13964905Y-15523524D02*
X13983952Y-15523524D01*
X13983952Y-15523524D02*
X14003000Y-15533048D01*
X14003000Y-15533048D02*
X14012524Y-15542571D01*
X14012524Y-15542571D02*
X14022048Y-15561619D01*
X14022048Y-15561619D02*
X14031571Y-15599714D01*
X14031571Y-15599714D02*
X14031571Y-15647333D01*
X14031571Y-15647333D02*
X14022048Y-15685428D01*
X14022048Y-15685428D02*
X14012524Y-15704476D01*
X14012524Y-15704476D02*
X14003000Y-15714000D01*
X14003000Y-15714000D02*
X13983952Y-15723524D01*
X13983952Y-15723524D02*
X13964905Y-15723524D01*
X13964905Y-15723524D02*
X13945857Y-15714000D01*
X13945857Y-15714000D02*
X13936333Y-15704476D01*
X13936333Y-15704476D02*
X13926809Y-15685428D01*
X13926809Y-15685428D02*
X13917286Y-15647333D01*
X13917286Y-15647333D02*
X13917286Y-15599714D01*
X13917286Y-15599714D02*
X13926809Y-15561619D01*
X13926809Y-15561619D02*
X13936333Y-15542571D01*
X13936333Y-15542571D02*
X13945857Y-15533048D01*
X13945857Y-15533048D02*
X13964905Y-15523524D01*
X14155381Y-15523524D02*
X14174429Y-15523524D01*
X14174429Y-15523524D02*
X14193476Y-15533048D01*
X14193476Y-15533048D02*
X14203000Y-15542571D01*
X14203000Y-15542571D02*
X14212524Y-15561619D01*
X14212524Y-15561619D02*
X14222048Y-15599714D01*
X14222048Y-15599714D02*
X14222048Y-15647333D01*
X14222048Y-15647333D02*
X14212524Y-15685428D01*
X14212524Y-15685428D02*
X14203000Y-15704476D01*
X14203000Y-15704476D02*
X14193476Y-15714000D01*
X14193476Y-15714000D02*
X14174429Y-15723524D01*
X14174429Y-15723524D02*
X14155381Y-15723524D01*
X14155381Y-15723524D02*
X14136333Y-15714000D01*
X14136333Y-15714000D02*
X14126809Y-15704476D01*
X14126809Y-15704476D02*
X14117286Y-15685428D01*
X14117286Y-15685428D02*
X14107762Y-15647333D01*
X14107762Y-15647333D02*
X14107762Y-15599714D01*
X14107762Y-15599714D02*
X14117286Y-15561619D01*
X14117286Y-15561619D02*
X14126809Y-15542571D01*
X14126809Y-15542571D02*
X14136333Y-15533048D01*
X14136333Y-15533048D02*
X14155381Y-15523524D01*
X14307762Y-15723524D02*
X14307762Y-15590190D01*
X14307762Y-15609238D02*
X14317286Y-15599714D01*
X14317286Y-15599714D02*
X14336333Y-15590190D01*
X14336333Y-15590190D02*
X14364905Y-15590190D01*
X14364905Y-15590190D02*
X14383952Y-15599714D01*
X14383952Y-15599714D02*
X14393476Y-15618762D01*
X14393476Y-15618762D02*
X14393476Y-15723524D01*
X14393476Y-15618762D02*
X14403000Y-15599714D01*
X14403000Y-15599714D02*
X14422048Y-15590190D01*
X14422048Y-15590190D02*
X14450619Y-15590190D01*
X14450619Y-15590190D02*
X14469667Y-15599714D01*
X14469667Y-15599714D02*
X14479190Y-15618762D01*
X14479190Y-15618762D02*
X14479190Y-15723524D01*
X14574429Y-15723524D02*
X14574429Y-15590190D01*
X14574429Y-15609238D02*
X14583952Y-15599714D01*
X14583952Y-15599714D02*
X14603000Y-15590190D01*
X14603000Y-15590190D02*
X14631571Y-15590190D01*
X14631571Y-15590190D02*
X14650619Y-15599714D01*
X14650619Y-15599714D02*
X14660143Y-15618762D01*
X14660143Y-15618762D02*
X14660143Y-15723524D01*
X14660143Y-15618762D02*
X14669667Y-15599714D01*
X14669667Y-15599714D02*
X14688714Y-15590190D01*
X14688714Y-15590190D02*
X14717286Y-15590190D01*
X14717286Y-15590190D02*
X14736333Y-15599714D01*
X14736333Y-15599714D02*
X14745857Y-15618762D01*
X14745857Y-15618762D02*
X14745857Y-15723524D01*
X15136333Y-15514000D02*
X14964905Y-15771143D01*
X15393476Y-15523524D02*
X15412524Y-15523524D01*
X15412524Y-15523524D02*
X15431572Y-15533048D01*
X15431572Y-15533048D02*
X15441095Y-15542571D01*
X15441095Y-15542571D02*
X15450619Y-15561619D01*
X15450619Y-15561619D02*
X15460143Y-15599714D01*
X15460143Y-15599714D02*
X15460143Y-15647333D01*
X15460143Y-15647333D02*
X15450619Y-15685428D01*
X15450619Y-15685428D02*
X15441095Y-15704476D01*
X15441095Y-15704476D02*
X15431572Y-15714000D01*
X15431572Y-15714000D02*
X15412524Y-15723524D01*
X15412524Y-15723524D02*
X15393476Y-15723524D01*
X15393476Y-15723524D02*
X15374429Y-15714000D01*
X15374429Y-15714000D02*
X15364905Y-15704476D01*
X15364905Y-15704476D02*
X15355381Y-15685428D01*
X15355381Y-15685428D02*
X15345857Y-15647333D01*
X15345857Y-15647333D02*
X15345857Y-15599714D01*
X15345857Y-15599714D02*
X15355381Y-15561619D01*
X15355381Y-15561619D02*
X15364905Y-15542571D01*
X15364905Y-15542571D02*
X15374429Y-15533048D01*
X15374429Y-15533048D02*
X15393476Y-15523524D01*
X15545857Y-15704476D02*
X15555381Y-15714000D01*
X15555381Y-15714000D02*
X15545857Y-15723524D01*
X15545857Y-15723524D02*
X15536333Y-15714000D01*
X15536333Y-15714000D02*
X15545857Y-15704476D01*
X15545857Y-15704476D02*
X15545857Y-15723524D01*
X15745857Y-15723524D02*
X15631572Y-15723524D01*
X15688714Y-15723524D02*
X15688714Y-15523524D01*
X15688714Y-15523524D02*
X15669667Y-15552095D01*
X15669667Y-15552095D02*
X15650619Y-15571143D01*
X15650619Y-15571143D02*
X15631572Y-15580667D01*
X15822048Y-15542571D02*
X15831572Y-15533048D01*
X15831572Y-15533048D02*
X15850619Y-15523524D01*
X15850619Y-15523524D02*
X15898238Y-15523524D01*
X15898238Y-15523524D02*
X15917286Y-15533048D01*
X15917286Y-15533048D02*
X15926810Y-15542571D01*
X15926810Y-15542571D02*
X15936333Y-15561619D01*
X15936333Y-15561619D02*
X15936333Y-15580667D01*
X15936333Y-15580667D02*
X15926810Y-15609238D01*
X15926810Y-15609238D02*
X15812524Y-15723524D01*
X15812524Y-15723524D02*
X15936333Y-15723524D01*
X16107762Y-15523524D02*
X16069667Y-15523524D01*
X16069667Y-15523524D02*
X16050619Y-15533048D01*
X16050619Y-15533048D02*
X16041095Y-15542571D01*
X16041095Y-15542571D02*
X16022048Y-15571143D01*
X16022048Y-15571143D02*
X16012524Y-15609238D01*
X16012524Y-15609238D02*
X16012524Y-15685428D01*
X16012524Y-15685428D02*
X16022048Y-15704476D01*
X16022048Y-15704476D02*
X16031572Y-15714000D01*
X16031572Y-15714000D02*
X16050619Y-15723524D01*
X16050619Y-15723524D02*
X16088714Y-15723524D01*
X16088714Y-15723524D02*
X16107762Y-15714000D01*
X16107762Y-15714000D02*
X16117286Y-15704476D01*
X16117286Y-15704476D02*
X16126810Y-15685428D01*
X16126810Y-15685428D02*
X16126810Y-15637809D01*
X16126810Y-15637809D02*
X16117286Y-15618762D01*
X16117286Y-15618762D02*
X16107762Y-15609238D01*
X16107762Y-15609238D02*
X16088714Y-15599714D01*
X16088714Y-15599714D02*
X16050619Y-15599714D01*
X16050619Y-15599714D02*
X16031572Y-15609238D01*
X16031572Y-15609238D02*
X16022048Y-15618762D01*
X16022048Y-15618762D02*
X16012524Y-15637809D01*
X16250619Y-15523524D02*
X16269667Y-15523524D01*
X16269667Y-15523524D02*
X16288714Y-15533048D01*
X16288714Y-15533048D02*
X16298238Y-15542571D01*
X16298238Y-15542571D02*
X16307762Y-15561619D01*
X16307762Y-15561619D02*
X16317286Y-15599714D01*
X16317286Y-15599714D02*
X16317286Y-15647333D01*
X16317286Y-15647333D02*
X16307762Y-15685428D01*
X16307762Y-15685428D02*
X16298238Y-15704476D01*
X16298238Y-15704476D02*
X16288714Y-15714000D01*
X16288714Y-15714000D02*
X16269667Y-15723524D01*
X16269667Y-15723524D02*
X16250619Y-15723524D01*
X16250619Y-15723524D02*
X16231572Y-15714000D01*
X16231572Y-15714000D02*
X16222048Y-15704476D01*
X16222048Y-15704476D02*
X16212524Y-15685428D01*
X16212524Y-15685428D02*
X16203000Y-15647333D01*
X16203000Y-15647333D02*
X16203000Y-15599714D01*
X16203000Y-15599714D02*
X16212524Y-15561619D01*
X16212524Y-15561619D02*
X16222048Y-15542571D01*
X16222048Y-15542571D02*
X16231572Y-15533048D01*
X16231572Y-15533048D02*
X16250619Y-15523524D01*
X16393476Y-15523524D02*
X16393476Y-15561619D01*
X16469667Y-15523524D02*
X16469667Y-15561619D01*
X16764905Y-15799714D02*
X16755381Y-15790190D01*
X16755381Y-15790190D02*
X16736334Y-15761619D01*
X16736334Y-15761619D02*
X16726810Y-15742571D01*
X16726810Y-15742571D02*
X16717286Y-15714000D01*
X16717286Y-15714000D02*
X16707762Y-15666381D01*
X16707762Y-15666381D02*
X16707762Y-15628286D01*
X16707762Y-15628286D02*
X16717286Y-15580667D01*
X16717286Y-15580667D02*
X16726810Y-15552095D01*
X16726810Y-15552095D02*
X16736334Y-15533048D01*
X16736334Y-15533048D02*
X16755381Y-15504476D01*
X16755381Y-15504476D02*
X16764905Y-15494952D01*
X16831572Y-15542571D02*
X16841096Y-15533048D01*
X16841096Y-15533048D02*
X16860143Y-15523524D01*
X16860143Y-15523524D02*
X16907762Y-15523524D01*
X16907762Y-15523524D02*
X16926810Y-15533048D01*
X16926810Y-15533048D02*
X16936334Y-15542571D01*
X16936334Y-15542571D02*
X16945857Y-15561619D01*
X16945857Y-15561619D02*
X16945857Y-15580667D01*
X16945857Y-15580667D02*
X16936334Y-15609238D01*
X16936334Y-15609238D02*
X16822048Y-15723524D01*
X16822048Y-15723524D02*
X16945857Y-15723524D01*
X17183953Y-15723524D02*
X17183953Y-15523524D01*
X17269667Y-15723524D02*
X17269667Y-15618762D01*
X17269667Y-15618762D02*
X17260143Y-15599714D01*
X17260143Y-15599714D02*
X17241096Y-15590190D01*
X17241096Y-15590190D02*
X17212524Y-15590190D01*
X17212524Y-15590190D02*
X17193477Y-15599714D01*
X17193477Y-15599714D02*
X17183953Y-15609238D01*
X17393477Y-15723524D02*
X17374429Y-15714000D01*
X17374429Y-15714000D02*
X17364905Y-15704476D01*
X17364905Y-15704476D02*
X17355381Y-15685428D01*
X17355381Y-15685428D02*
X17355381Y-15628286D01*
X17355381Y-15628286D02*
X17364905Y-15609238D01*
X17364905Y-15609238D02*
X17374429Y-15599714D01*
X17374429Y-15599714D02*
X17393477Y-15590190D01*
X17393477Y-15590190D02*
X17422048Y-15590190D01*
X17422048Y-15590190D02*
X17441096Y-15599714D01*
X17441096Y-15599714D02*
X17450619Y-15609238D01*
X17450619Y-15609238D02*
X17460143Y-15628286D01*
X17460143Y-15628286D02*
X17460143Y-15685428D01*
X17460143Y-15685428D02*
X17450619Y-15704476D01*
X17450619Y-15704476D02*
X17441096Y-15714000D01*
X17441096Y-15714000D02*
X17422048Y-15723524D01*
X17422048Y-15723524D02*
X17393477Y-15723524D01*
X17574429Y-15723524D02*
X17555381Y-15714000D01*
X17555381Y-15714000D02*
X17545858Y-15694952D01*
X17545858Y-15694952D02*
X17545858Y-15523524D01*
X17726810Y-15714000D02*
X17707762Y-15723524D01*
X17707762Y-15723524D02*
X17669667Y-15723524D01*
X17669667Y-15723524D02*
X17650619Y-15714000D01*
X17650619Y-15714000D02*
X17641096Y-15694952D01*
X17641096Y-15694952D02*
X17641096Y-15618762D01*
X17641096Y-15618762D02*
X17650619Y-15599714D01*
X17650619Y-15599714D02*
X17669667Y-15590190D01*
X17669667Y-15590190D02*
X17707762Y-15590190D01*
X17707762Y-15590190D02*
X17726810Y-15599714D01*
X17726810Y-15599714D02*
X17736334Y-15618762D01*
X17736334Y-15618762D02*
X17736334Y-15637809D01*
X17736334Y-15637809D02*
X17641096Y-15656857D01*
X17812524Y-15714000D02*
X17831572Y-15723524D01*
X17831572Y-15723524D02*
X17869667Y-15723524D01*
X17869667Y-15723524D02*
X17888715Y-15714000D01*
X17888715Y-15714000D02*
X17898239Y-15694952D01*
X17898239Y-15694952D02*
X17898239Y-15685428D01*
X17898239Y-15685428D02*
X17888715Y-15666381D01*
X17888715Y-15666381D02*
X17869667Y-15656857D01*
X17869667Y-15656857D02*
X17841096Y-15656857D01*
X17841096Y-15656857D02*
X17822048Y-15647333D01*
X17822048Y-15647333D02*
X17812524Y-15628286D01*
X17812524Y-15628286D02*
X17812524Y-15618762D01*
X17812524Y-15618762D02*
X17822048Y-15599714D01*
X17822048Y-15599714D02*
X17841096Y-15590190D01*
X17841096Y-15590190D02*
X17869667Y-15590190D01*
X17869667Y-15590190D02*
X17888715Y-15599714D01*
X17964905Y-15799714D02*
X17974429Y-15790190D01*
X17974429Y-15790190D02*
X17993477Y-15761619D01*
X17993477Y-15761619D02*
X18003000Y-15742571D01*
X18003000Y-15742571D02*
X18012524Y-15714000D01*
X18012524Y-15714000D02*
X18022048Y-15666381D01*
X18022048Y-15666381D02*
X18022048Y-15628286D01*
X18022048Y-15628286D02*
X18012524Y-15580667D01*
X18012524Y-15580667D02*
X18003000Y-15552095D01*
X18003000Y-15552095D02*
X17993477Y-15533048D01*
X17993477Y-15533048D02*
X17974429Y-15504476D01*
X17974429Y-15504476D02*
X17964905Y-15494952D01*
X18326810Y-15799714D02*
X18317286Y-15790190D01*
X18317286Y-15790190D02*
X18298239Y-15761619D01*
X18298239Y-15761619D02*
X18288715Y-15742571D01*
X18288715Y-15742571D02*
X18279191Y-15714000D01*
X18279191Y-15714000D02*
X18269667Y-15666381D01*
X18269667Y-15666381D02*
X18269667Y-15628286D01*
X18269667Y-15628286D02*
X18279191Y-15580667D01*
X18279191Y-15580667D02*
X18288715Y-15552095D01*
X18288715Y-15552095D02*
X18298239Y-15533048D01*
X18298239Y-15533048D02*
X18317286Y-15504476D01*
X18317286Y-15504476D02*
X18326810Y-15494952D01*
X18403000Y-15590190D02*
X18403000Y-15723524D01*
X18403000Y-15609238D02*
X18412524Y-15599714D01*
X18412524Y-15599714D02*
X18431572Y-15590190D01*
X18431572Y-15590190D02*
X18460143Y-15590190D01*
X18460143Y-15590190D02*
X18479191Y-15599714D01*
X18479191Y-15599714D02*
X18488715Y-15618762D01*
X18488715Y-15618762D02*
X18488715Y-15723524D01*
X18612524Y-15723524D02*
X18593477Y-15714000D01*
X18593477Y-15714000D02*
X18583953Y-15704476D01*
X18583953Y-15704476D02*
X18574429Y-15685428D01*
X18574429Y-15685428D02*
X18574429Y-15628286D01*
X18574429Y-15628286D02*
X18583953Y-15609238D01*
X18583953Y-15609238D02*
X18593477Y-15599714D01*
X18593477Y-15599714D02*
X18612524Y-15590190D01*
X18612524Y-15590190D02*
X18641096Y-15590190D01*
X18641096Y-15590190D02*
X18660143Y-15599714D01*
X18660143Y-15599714D02*
X18669667Y-15609238D01*
X18669667Y-15609238D02*
X18679191Y-15628286D01*
X18679191Y-15628286D02*
X18679191Y-15685428D01*
X18679191Y-15685428D02*
X18669667Y-15704476D01*
X18669667Y-15704476D02*
X18660143Y-15714000D01*
X18660143Y-15714000D02*
X18641096Y-15723524D01*
X18641096Y-15723524D02*
X18612524Y-15723524D01*
X18736334Y-15590190D02*
X18812524Y-15590190D01*
X18764905Y-15523524D02*
X18764905Y-15694952D01*
X18764905Y-15694952D02*
X18774429Y-15714000D01*
X18774429Y-15714000D02*
X18793477Y-15723524D01*
X18793477Y-15723524D02*
X18812524Y-15723524D01*
X19031572Y-15590190D02*
X19031572Y-15790190D01*
X19031572Y-15599714D02*
X19050620Y-15590190D01*
X19050620Y-15590190D02*
X19088715Y-15590190D01*
X19088715Y-15590190D02*
X19107762Y-15599714D01*
X19107762Y-15599714D02*
X19117286Y-15609238D01*
X19117286Y-15609238D02*
X19126810Y-15628286D01*
X19126810Y-15628286D02*
X19126810Y-15685428D01*
X19126810Y-15685428D02*
X19117286Y-15704476D01*
X19117286Y-15704476D02*
X19107762Y-15714000D01*
X19107762Y-15714000D02*
X19088715Y-15723524D01*
X19088715Y-15723524D02*
X19050620Y-15723524D01*
X19050620Y-15723524D02*
X19031572Y-15714000D01*
X19241096Y-15723524D02*
X19222048Y-15714000D01*
X19222048Y-15714000D02*
X19212524Y-15694952D01*
X19212524Y-15694952D02*
X19212524Y-15523524D01*
X19403001Y-15723524D02*
X19403001Y-15618762D01*
X19403001Y-15618762D02*
X19393477Y-15599714D01*
X19393477Y-15599714D02*
X19374429Y-15590190D01*
X19374429Y-15590190D02*
X19336334Y-15590190D01*
X19336334Y-15590190D02*
X19317286Y-15599714D01*
X19403001Y-15714000D02*
X19383953Y-15723524D01*
X19383953Y-15723524D02*
X19336334Y-15723524D01*
X19336334Y-15723524D02*
X19317286Y-15714000D01*
X19317286Y-15714000D02*
X19307762Y-15694952D01*
X19307762Y-15694952D02*
X19307762Y-15675905D01*
X19307762Y-15675905D02*
X19317286Y-15656857D01*
X19317286Y-15656857D02*
X19336334Y-15647333D01*
X19336334Y-15647333D02*
X19383953Y-15647333D01*
X19383953Y-15647333D02*
X19403001Y-15637809D01*
X19469667Y-15590190D02*
X19545858Y-15590190D01*
X19498239Y-15523524D02*
X19498239Y-15694952D01*
X19498239Y-15694952D02*
X19507762Y-15714000D01*
X19507762Y-15714000D02*
X19526810Y-15723524D01*
X19526810Y-15723524D02*
X19545858Y-15723524D01*
X19688715Y-15714000D02*
X19669667Y-15723524D01*
X19669667Y-15723524D02*
X19631572Y-15723524D01*
X19631572Y-15723524D02*
X19612524Y-15714000D01*
X19612524Y-15714000D02*
X19603001Y-15694952D01*
X19603001Y-15694952D02*
X19603001Y-15618762D01*
X19603001Y-15618762D02*
X19612524Y-15599714D01*
X19612524Y-15599714D02*
X19631572Y-15590190D01*
X19631572Y-15590190D02*
X19669667Y-15590190D01*
X19669667Y-15590190D02*
X19688715Y-15599714D01*
X19688715Y-15599714D02*
X19698239Y-15618762D01*
X19698239Y-15618762D02*
X19698239Y-15637809D01*
X19698239Y-15637809D02*
X19603001Y-15656857D01*
X19869667Y-15723524D02*
X19869667Y-15523524D01*
X19869667Y-15714000D02*
X19850620Y-15723524D01*
X19850620Y-15723524D02*
X19812524Y-15723524D01*
X19812524Y-15723524D02*
X19793477Y-15714000D01*
X19793477Y-15714000D02*
X19783953Y-15704476D01*
X19783953Y-15704476D02*
X19774429Y-15685428D01*
X19774429Y-15685428D02*
X19774429Y-15628286D01*
X19774429Y-15628286D02*
X19783953Y-15609238D01*
X19783953Y-15609238D02*
X19793477Y-15599714D01*
X19793477Y-15599714D02*
X19812524Y-15590190D01*
X19812524Y-15590190D02*
X19850620Y-15590190D01*
X19850620Y-15590190D02*
X19869667Y-15599714D01*
X19945858Y-15799714D02*
X19955382Y-15790190D01*
X19955382Y-15790190D02*
X19974429Y-15761619D01*
X19974429Y-15761619D02*
X19983953Y-15742571D01*
X19983953Y-15742571D02*
X19993477Y-15714000D01*
X19993477Y-15714000D02*
X20003001Y-15666381D01*
X20003001Y-15666381D02*
X20003001Y-15628286D01*
X20003001Y-15628286D02*
X19993477Y-15580667D01*
X19993477Y-15580667D02*
X19983953Y-15552095D01*
X19983953Y-15552095D02*
X19974429Y-15533048D01*
X19974429Y-15533048D02*
X19955382Y-15504476D01*
X19955382Y-15504476D02*
X19945858Y-15494952D01*
M02*
